<svg width="" height="" viewBox="0 0 45 56" fill="none" xmlns="http://www.w3.org/2000/svg">
<rect x="3.5" y="13.5" width="38" height="39" fill="white" stroke="white" stroke-width="7"/>
<path d="M34 12C34 10.2412 33.4886 8.40956 32.5242 6.71314C31.7038 5.27003 29.3988 3.5633 26.2952 3.18019C24.0379 2.90155 21.4769 3.0237 19.1603 3.0445C16.7069 3.06653 14.5908 4.02465 13.2163 4.9341C10.0084 7.05652 10 9.49766 10 12" stroke="white" stroke-width="5" stroke-linecap="square"/>
<circle cx="34.5" cy="7.5" r="6.5" fill="#D20000"/>
<path d="M35.4058 11H34.1226V6.60547H32.624V5.75293C33.0195 5.73535 33.2964 5.70898 33.4546 5.67383C33.7065 5.61816 33.9116 5.50684 34.0698 5.33984C34.1782 5.22559 34.2603 5.07324 34.3159 4.88281C34.3481 4.76855 34.3643 4.68359 34.3643 4.62793H35.4058V11Z" fill="white"/>
</svg>
